HIERARCHY
ROOT Hips
{
	OFFSET 0.00000 0.00000 0.00000
	CHANNELS 6 Xposition Yposition Zposition Zrotation Yrotation Xrotation 
	JOINT LHipJoint
	{
		OFFSET 0 0 0
		CHANNELS 3 Zrotation Yrotation Xrotation
		JOINT LeftUpLeg
		{
			OFFSET 1.56857 -1.73443 1.15205
			CHANNELS 3 Zrotation Yrotation Xrotation
			JOINT LeftLeg
			{
				OFFSET 2.39362 -6.57643 0.00000
				CHANNELS 3 Zrotation Yrotation Xrotation
				JOINT LeftFoot
				{
					OFFSET 2.50952 -6.89485 0.00000
					CHANNELS 3 Zrotation Yrotation Xrotation
					JOINT LeftToeBase
					{
						OFFSET 0.17171 -0.47178 1.88682
						CHANNELS 3 Zrotation Yrotation Xrotation
						End Site
						{
							OFFSET 0.00000 -0.00000 0.98146
						}
					}
				}
			}
		}
	}
	JOINT RHipJoint
	{
		OFFSET 0 0 0
		CHANNELS 3 Zrotation Yrotation Xrotation
		JOINT RightUpLeg
		{
			OFFSET -1.28153 -1.73443 1.15205
			CHANNELS 3 Zrotation Yrotation Xrotation
			JOINT RightLeg
			{
				OFFSET -2.26861 -6.23296 0.00000
				CHANNELS 3 Zrotation Yrotation Xrotation
				JOINT RightFoot
				{
					OFFSET -2.54143 -6.98254 0.00000
					CHANNELS 3 Zrotation Yrotation Xrotation
					JOINT RightToeBase
					{
						OFFSET -0.23309 -0.64041 1.93119
						CHANNELS 3 Zrotation Yrotation Xrotation
						End Site
						{
							OFFSET -0.00000 -0.00000 1.02013
						}
					}
				}
			}
		}
	}
	JOINT LowerBack
	{
		OFFSET 0 0 0
		CHANNELS 3 Zrotation Yrotation Xrotation
		JOINT Spine
		{
			OFFSET -0.07096 2.10460 -0.27878
			CHANNELS 3 Zrotation Yrotation Xrotation
			JOINT Spine1
			{
				OFFSET -0.00826 2.13662 -0.08279
				CHANNELS 3 Zrotation Yrotation Xrotation
				JOINT Neck
				{
					OFFSET 0 0 0
					CHANNELS 3 Zrotation Yrotation Xrotation
					JOINT Neck1
					{
						OFFSET 0.03239 1.77799 0.24435
						CHANNELS 3 Zrotation Yrotation Xrotation
						JOINT Head
						{
							OFFSET 0.01026 1.74194 -0.49664
							CHANNELS 3 Zrotation Yrotation Xrotation
							End Site
							{
								OFFSET 0.00170 1.83057 -0.19653
							}
						}
					}
				}
				JOINT LeftShoulder
				{
					OFFSET 0 0 0
					CHANNELS 3 Zrotation Yrotation Xrotation
					JOINT LeftArm
					{
						OFFSET 3.19178 1.35907 -0.31412
						CHANNELS 3 Zrotation Yrotation Xrotation
						JOINT LeftForeArm
						{
							OFFSET 4.85247 -0.00000 -0.00000
							CHANNELS 3 Zrotation Yrotation Xrotation
							JOINT LeftHand
							{
								OFFSET 3.55584 -0.00000 0.00000
								CHANNELS 3 Zrotation Yrotation Xrotation
								JOINT LeftFingerBase
								{
									OFFSET 0 0 0
									CHANNELS 3 Zrotation Yrotation Xrotation
									JOINT LeftHandIndex1
									{
										OFFSET 0.69320 -0.00000 0.00000
										CHANNELS 3 Zrotation Yrotation Xrotation
										End Site
										{
											OFFSET 0.55888 -0.00000 0.00000
										}
									}
								}
								JOINT LThumb
								{
									OFFSET 0 0 0
									CHANNELS 3 Zrotation Yrotation Xrotation
									End Site
									{
										OFFSET 0.56741 -0.00000 0.56741
									}
								}
							}
						}
					}
				}
				JOINT RightShoulder
				{
					OFFSET 0 0 0
					CHANNELS 3 Zrotation Yrotation Xrotation
					JOINT RightArm
					{
						OFFSET -3.28999 1.24191 -0.26899
						CHANNELS 3 Zrotation Yrotation Xrotation
						JOINT RightForeArm
						{
							OFFSET -4.64462 -0.00000 0.00000
							CHANNELS 3 Zrotation Yrotation Xrotation
							JOINT RightHand
							{
								OFFSET -3.40703 -0.00000 0.00000
								CHANNELS 3 Zrotation Yrotation Xrotation
								JOINT RightFingerBase
								{
									OFFSET 0 0 0
									CHANNELS 3 Zrotation Yrotation Xrotation
									JOINT RightHandIndex1
									{
										OFFSET -0.61958 -0.00000 0.00000
										CHANNELS 3 Zrotation Yrotation Xrotation
										End Site
										{
											OFFSET -0.49952 -0.00000 0.00000
										}
									}
								}
								JOINT RThumb
								{
									OFFSET 0 0 0
									CHANNELS 3 Zrotation Yrotation Xrotation
									End Site
									{
										OFFSET -0.50715 -0.00000 0.50715
									}
								}
							}
						}
					}
				}
			}
		}
	}
}
MOTION
Frames: 6
Frame Time: .0083333
8.4012 16.7600 -0.1368 460.5660 73.9809 460.2140 0.0000 0.0000 0.0000 -36.4423 12.8686 16.6145 0.0192 0.8935 2.4559 0.0792 -13.7068 -10.5562 0.3227 3.6512 10.0974 0.0000 0.0000 0.0000 -0.6967 -0.3713 -26.3140 -0.1723 -2.6739 7.3721 -0.3325 2.9519 -10.2760 -0.0865 -1.8969 5.2209 -19.7211 -1.9925 4.7899 -2.5227 -3.6271 -0.0478 8.4745 -1.5570 -1.7073 6.3054 4.8788 -24.2899 -2.6741 5.0096 13.1068 -1.2151 2.4178 8.2266 -0.0000 -0.0000 0.0000 -77.8194 -7.0278 54.2122 31.0039 -41.7385 -12.0725 -0.0000 0.0000 -2.9753 19.9784 -23.3401 -8.1961 -7.1250 0.0000 -0.0000 -5.6713 5.4210 5.1359 -0.0000 -0.0000 0.0000 80.7868 -22.1210 30.5688 -19.9916 30.6323 -5.5271 0.0000 -0.0000 -1.9735 -10.4724 -30.6687 5.3860 7.1250 -0.0000 -0.0000 23.9236 -59.4421 -8.7446
8.5377 16.7379 -0.1357 461.4490 73.9929 461.2910 0.0000 0.0000 0.0000 -36.4553 12.3547 17.0418 0.0220 0.9578 2.6327 0.1138 -13.6410 -10.9081 0.3263 3.6714 10.1541 0.0000 0.0000 0.0000 -0.5557 -0.8573 -26.5890 -0.1509 -2.5033 6.8988 -0.3186 3.8355 -10.0355 -0.1047 -2.0863 5.7443 -19.6305 -2.0514 4.7167 -2.4693 -3.6897 -0.0870 8.4826 -1.5890 -1.6927 6.1702 4.7712 -24.5437 -2.5949 4.8786 13.2603 -1.1811 2.3557 8.3085 -0.0000 -0.0000 0.0000 -77.9565 -6.8736 54.5425 30.9739 -41.7136 -12.0524 -0.0000 0.0000 -2.9673 19.5263 -23.3733 -8.0084 -7.1250 0.0000 -0.0000 -5.9551 5.4582 5.3915 -0.0000 -0.0000 0.0000 80.8458 -22.2750 30.4981 -19.8720 30.4878 -5.4663 0.0000 -0.0000 -2.0104 -10.7787 -29.8830 5.4183 7.1250 -0.0000 -0.0000 22.9886 -58.7970 -8.0208
8.6745 16.7201 -0.1370 462.3790 73.8469 462.3980 0.0000 0.0000 0.0000 -36.6059 11.9495 17.3992 0.0274 1.0676 2.9349 0.1425 -13.6992 -11.2618 0.2897 3.4614 9.5661 0.0000 0.0000 0.0000 -0.5965 -1.4625 -26.9185 -0.1442 -2.4470 6.7426 -0.3227 4.5586 -10.1323 -0.0760 -1.7780 4.8924 -19.7127 -2.1512 4.6772 -2.4154 -3.8096 -0.0429 8.5842 -1.6611 -1.5779 6.1085 4.7867 -25.0852 -2.6137 4.8896 13.4402 -1.1670 2.3515 8.4570 0.0000 -0.0000 0.0000 -78.1281 -6.8348 54.7547 30.9293 -41.6767 -12.0228 -0.0000 0.0000 -3.0300 19.0153 -23.5432 -7.8380 -7.1250 0.0000 -0.0000 -6.2865 5.3630 5.7067 0.0000 -0.0000 0.0000 80.8045 -22.1655 30.6254 -19.6939 30.2718 -5.3762 0.0000 -0.0000 -2.1883 -11.1979 -29.2491 5.5249 7.1250 -0.0000 -0.0000 22.0834 -58.3085 -7.4226
8.8089 16.7030 -0.1403 462.7700 73.5593 462.9780 0.0000 0.0000 0.0000 -36.8869 11.7815 17.6249 0.0331 1.1751 3.2307 0.1567 -13.7916 -11.4722 0.2359 3.1260 8.6298 0.0000 0.0000 0.0000 -0.8476 -1.9053 -27.2706 -0.1479 -2.4784 6.8297 -0.3200 5.2314 -10.1602 -0.0430 -1.3382 3.6800 -19.8522 -2.1690 4.6900 -2.4698 -3.8590 -0.1753 8.6059 -1.6612 -1.7121 6.0608 4.7005 -24.8274 -2.6037 4.8029 13.2818 -1.1736 2.3110 8.3557 0.0000 0.0000 0.0000 -78.2080 -6.5336 55.2988 30.7243 -41.5062 -11.8867 -0.0000 0.0000 -3.1750 19.2891 -23.8079 -8.0414 -7.1250 0.0000 -0.0000 -6.1391 5.0480 5.6081 0.0000 0.0000 0.0000 80.8903 -22.4810 30.4548 -19.6523 30.2212 -5.3552 0.0000 -0.0000 -1.9993 -10.9056 -29.5969 5.4359 7.1250 -0.0000 -0.0000 22.6411 -58.5637 -7.7632
8.9453 16.6818 -0.1394 463.1050 73.4886 463.4800 0.0000 0.0000 0.0000 -36.9443 11.5304 17.9466 0.0376 1.2508 3.4392 0.1788 -13.7004 -11.6577 0.1800 2.7324 7.5347 0.0000 0.0000 0.0000 -0.9843 -1.7183 -27.3718 -0.1587 -2.5665 7.0742 -0.3283 5.3568 -10.2995 -0.0178 -0.8613 2.3672 -19.8349 -2.1616 4.7260 -2.4408 -3.8680 -0.2468 8.6331 -1.6527 -1.8082 5.8885 4.6290 -24.8760 -2.5210 4.7451 13.2405 -1.1262 2.2833 8.3403 0.0000 0.0000 0.0000 -78.3855 -6.3240 55.6813 30.5018 -41.3197 -11.7395 -0.0000 0.0000 -3.1255 19.6566 -23.9622 -8.2543 -7.1250 0.0000 -0.0000 -5.9255 4.8304 5.4352 0.0000 0.0000 0.0000 80.9494 -22.5788 30.1287 -19.6108 30.1706 -5.3344 0.0000 -0.0000 -1.6408 -10.2550 -30.4046 5.2317 7.1250 -0.0000 -0.0000 23.9341 -59.1539 -8.5819
9.0872 16.6596 -0.1335 463.6930 73.7406 464.2000 0.0000 0.0000 0.0000 -36.6350 11.1642 18.4342 0.0403 1.2953 3.5618 0.2145 -13.4404 -11.8940 0.1411 2.4208 6.6701 0.0000 0.0000 0.0000 -0.8967 -0.8740 -27.1298 -0.1713 -2.6661 7.3503 -0.3544 4.9691 -10.6362 -0.0226 -0.9696 2.6652 -19.5777 -2.1760 4.6097 -2.3013 -3.8476 -0.2199 8.6391 -1.6590 -1.7247 5.8742 4.6143 -24.9874 -2.6302 4.7443 13.2561 -1.1597 2.2693 8.3662 0.0000 0.0000 0.0000 -78.6176 -6.1078 55.8977 30.3459 -41.1880 -11.6367 -0.0000 0.0000 -2.8504 19.3665 -23.9046 -8.1063 -7.1250 0.0000 -0.0000 -6.0996 4.9362 5.5845 0.0000 0.0000 0.0000 80.8996 -22.6784 30.1334 -19.7205 30.3041 -5.3896 0.0000 -0.0000 -1.2874 -9.6445 -31.1772 5.0276 7.1250 -0.0000 -0.0000 25.1947 -59.7098 -9.4087
